<svg width="254" height="68" viewBox="0 0 254 68" fill="none" xmlns="http://www.w3.org/2000/svg">
<rect x="1.55393" y="12.9416" width="46.2743" height="42.1168" rx="5.78429" stroke="#D50036" stroke-width="2.89214"/>
<path d="M74.3028 49.5726C71.9486 49.5726 69.8966 49.0636 68.1469 48.0456C66.3971 46.9957 65.0291 45.5005 64.0429 43.5599C63.0885 41.5874 62.6113 39.2491 62.6113 36.545C62.6113 34.3817 62.8817 32.3456 63.4226 30.4368C63.9952 28.4962 64.7746 26.7305 65.7609 25.1398C66.7471 23.5491 67.9083 22.1652 69.2444 20.9881C70.6124 19.811 72.1236 18.9044 73.7779 18.2681C75.4322 17.6318 77.1819 17.3137 79.0271 17.3137C80.8087 17.3137 82.4153 17.7113 83.8469 18.5067C85.3103 19.2702 86.4397 20.3837 87.235 21.8471L83.656 25.4739C83.0197 24.5831 82.2721 23.9468 81.4131 23.565C80.586 23.1515 79.6475 22.9447 78.5976 22.9447C77.5796 22.9447 76.6093 23.1833 75.6867 23.6605C74.7641 24.1377 73.921 24.7899 73.1575 25.617C72.394 26.4124 71.7259 27.3668 71.1533 28.4802C70.5806 29.5937 70.1352 30.8026 69.8171 32.107C69.4989 33.4113 69.3399 34.7475 69.3399 36.1155C69.3399 37.7062 69.5467 39.0901 69.9602 40.2672C70.4056 41.4443 71.0737 42.351 71.9645 42.9872C72.8871 43.6235 74.0642 43.9416 75.4958 43.9416C76.6093 43.9416 77.6273 43.7349 78.5499 43.3213C79.5043 42.8759 80.3633 42.3192 81.1268 41.6511L83.8469 45.7073C82.7334 46.7571 81.4131 47.6638 79.8861 48.4274C78.3908 49.1909 76.5297 49.5726 74.3028 49.5726ZM98.9097 49.5726C96.5555 49.5726 94.5035 49.0477 92.7538 47.9979C91.0041 46.948 89.6361 45.4528 88.6498 43.5122C87.6954 41.5397 87.2182 39.1696 87.2182 36.4018C87.2182 34.2067 87.4887 32.1547 88.0295 30.2459C88.6021 28.3053 89.3816 26.5555 90.3678 24.9967C91.354 23.406 92.4993 22.038 93.8036 20.8927C95.1398 19.7474 96.5873 18.8725 98.1462 18.2681C99.7051 17.6318 101.328 17.3137 103.014 17.3137C105.4 17.3137 107.468 17.8386 109.217 18.8884C110.999 19.9383 112.351 21.4494 113.274 23.4219C114.228 25.3625 114.705 27.7167 114.705 30.4845C114.705 32.6796 114.435 34.7475 113.894 36.6881C113.353 38.6288 112.574 40.3944 111.556 41.9851C110.569 43.544 109.408 44.8961 108.072 46.0413C106.768 47.1548 105.336 48.0297 103.777 48.666C102.218 49.2704 100.596 49.5726 98.9097 49.5726ZM99.2438 43.9416C100.135 43.9416 100.994 43.7189 101.821 43.2736C102.68 42.8282 103.475 42.2078 104.207 41.4125C104.97 40.6171 105.638 39.6786 106.211 38.597C106.784 37.5153 107.229 36.3223 107.547 35.0179C107.865 33.7136 108.024 32.3456 108.024 30.914C108.024 29.2597 107.818 27.844 107.404 26.6669C107.022 25.4898 106.434 24.5831 105.638 23.9468C104.843 23.2787 103.857 22.9447 102.68 22.9447C101.821 22.9447 100.962 23.1674 100.103 23.6128C99.2438 24.0582 98.4325 24.6785 97.669 25.4739C96.9373 26.2692 96.2851 27.2077 95.7125 28.2894C95.1716 29.371 94.7421 30.564 94.424 31.8684C94.1059 33.1727 93.9468 34.5407 93.9468 35.9723C93.9468 37.6266 94.1377 39.0583 94.5195 40.2672C94.933 41.4443 95.5375 42.351 96.3328 42.9872C97.1282 43.6235 98.0985 43.9416 99.2438 43.9416ZM117.385 49L123.589 17.8863H130.126L135.089 34.2067C135.248 34.7793 135.407 35.4474 135.566 36.2109C135.757 36.9427 135.932 37.7221 136.091 38.5492C136.282 39.3446 136.457 40.1399 136.616 40.9353H136.807C136.934 39.2173 137.093 37.3721 137.284 35.3997C137.507 33.4273 137.793 31.5503 138.143 29.7687L140.529 17.8863H146.781L140.529 49H133.992L129.076 32.7274C128.822 31.9002 128.552 30.8822 128.265 29.6733C128.011 28.4643 127.756 27.2077 127.502 25.9033H127.311C127.215 27.6213 127.056 29.4665 126.834 31.4389C126.611 33.4113 126.325 35.2884 125.975 37.0699L123.589 49H117.385ZM158.023 49.5726C156.082 49.5726 154.157 49.1114 152.248 48.1888C150.34 47.2662 148.653 45.7868 147.19 43.7508L151.103 40.0763C151.994 41.2534 153.107 42.1919 154.444 42.8918C155.78 43.5917 157.18 43.9416 158.643 43.9416C159.502 43.9416 160.25 43.8144 160.886 43.5599C161.554 43.2736 162.063 42.8918 162.413 42.4146C162.795 41.9056 162.986 41.3011 162.986 40.6012C162.986 39.6786 162.667 38.931 162.031 38.3584C161.395 37.7857 160.504 37.1494 159.359 36.4495L156.591 34.7316C155.159 33.8408 153.998 32.791 153.107 31.5821C152.217 30.3732 151.771 28.8302 151.771 26.9532C151.771 25.2034 152.248 23.5969 153.203 22.1334C154.189 20.67 155.493 19.5088 157.116 18.6498C158.77 17.7591 160.568 17.3137 162.508 17.3137C164.353 17.3137 166.087 17.7432 167.71 18.6021C169.364 19.4611 170.748 20.6223 171.861 22.0857L168.139 25.8556C167.344 24.9967 166.469 24.3127 165.515 23.8036C164.56 23.2628 163.51 22.9924 162.365 22.9924C161.538 22.9924 160.822 23.1356 160.218 23.4219C159.645 23.7082 159.2 24.1059 158.882 24.6149C158.595 25.1239 158.452 25.6647 158.452 26.2374C158.452 27.0964 158.786 27.7963 159.454 28.3371C160.154 28.8461 161.124 29.4983 162.365 30.2936L165.372 32.107C166.899 33.0614 168.012 34.0794 168.712 35.1611C169.412 36.2428 169.762 37.6744 169.762 39.4559C169.762 41.3329 169.269 43.035 168.282 44.562C167.328 46.0891 165.96 47.3139 164.179 48.2365C162.429 49.1273 160.377 49.5726 158.023 49.5726ZM186.335 49.5726C183.981 49.5726 181.929 49.0477 180.179 47.9979C178.429 46.948 177.061 45.4528 176.075 43.5122C175.121 41.5397 174.643 39.1696 174.643 36.4018C174.643 34.2067 174.914 32.1547 175.455 30.2459C176.027 28.3053 176.807 26.5555 177.793 24.9967C178.779 23.406 179.925 22.038 181.229 20.8927C182.565 19.7474 184.013 18.8725 185.571 18.2681C187.13 17.6318 188.753 17.3137 190.439 17.3137C192.825 17.3137 194.893 17.8386 196.643 18.8884C198.424 19.9383 199.776 21.4494 200.699 23.4219C201.653 25.3625 202.13 27.7167 202.13 30.4845C202.13 32.6796 201.86 34.7475 201.319 36.6881C200.778 38.6288 199.999 40.3944 198.981 41.9851C197.995 43.544 196.833 44.8961 195.497 46.0413C194.193 47.1548 192.761 48.0297 191.202 48.666C189.644 49.2704 188.021 49.5726 186.335 49.5726ZM186.669 43.9416C187.56 43.9416 188.419 43.7189 189.246 43.2736C190.105 42.8282 190.9 42.2078 191.632 41.4125C192.395 40.6171 193.064 39.6786 193.636 38.597C194.209 37.5153 194.654 36.3223 194.972 35.0179C195.29 33.7136 195.45 32.3456 195.45 30.914C195.45 29.2597 195.243 27.844 194.829 26.6669C194.447 25.4898 193.859 24.5831 193.064 23.9468C192.268 23.2787 191.282 22.9447 190.105 22.9447C189.246 22.9447 188.387 23.1674 187.528 23.6128C186.669 24.0582 185.858 24.6785 185.094 25.4739C184.362 26.2692 183.71 27.2077 183.138 28.2894C182.597 29.371 182.167 30.564 181.849 31.8684C181.531 33.1727 181.372 34.5407 181.372 35.9723C181.372 37.6266 181.563 39.0583 181.945 40.2672C182.358 41.4443 182.963 42.351 183.758 42.9872C184.553 43.6235 185.524 43.9416 186.669 43.9416ZM204.81 49L211.014 17.8863H217.552L212.398 43.5122H224.185L223.135 49H204.81ZM228.576 49L234.827 17.8863H253.247L252.198 23.3742H240.22L238.884 30.1505H249.048L247.998 35.6383H237.834L236.211 43.5122H248.571L247.521 49H228.576Z" fill="#D50036"/>
<path d="M11.1338 24.4928L23.2446 33.8923L11.1338 43.4725" stroke="#D50036" stroke-width="2.89214" stroke-linecap="round"/>
<path d="M24.6909 42.1168H39.8747" stroke="#D50036" stroke-width="2.89214" stroke-linecap="round"/>
</svg>
